<svg width="158" height="174" viewBox="0 0 158 174" fill="none" xmlns="http://www.w3.org/2000/svg">
<rect x="0.5" width="157" height="30" rx="15" fill="white"/>
<path d="M27.292 8.85742V21.2305H25.7744V14.9141H23.3818V13.6836H25.7744V8.85742H27.292ZM21.4404 12.7812C21.4268 14.6543 22.5479 16.6504 24.5029 17.5117L23.6826 18.6738C22.2676 18.0723 21.2422 16.835 20.7021 15.3516C20.1553 16.9238 19.1367 18.2432 17.7217 18.8789L16.9014 17.7031C18.8291 16.8281 19.9229 14.7227 19.9229 12.7812V12.1387H17.2705V10.9219H19.9365V9.11719H21.4541V10.9219H24.0381V12.1387H21.4404V12.7812ZM34.1475 9.10352C36.8818 9.10352 38.5908 10.0059 38.6045 11.5098C38.5908 12.9863 36.8818 13.875 34.1475 13.8613C31.4404 13.875 29.6904 12.9863 29.6904 11.5098C29.6904 10.0059 31.4404 9.10352 34.1475 9.10352ZM34.1475 10.293C32.3428 10.293 31.2627 10.7168 31.2764 11.5098C31.2627 12.2617 32.3428 12.6719 34.1475 12.6855C35.9521 12.6719 37.0322 12.2617 37.0322 11.5098C37.0322 10.7168 35.9521 10.293 34.1475 10.293ZM38.4268 16.9102V21.0664H29.8545V16.9102H38.4268ZM31.3584 18.1133V19.8359H36.9502V18.1133H31.3584ZM39.7939 14.6953V15.9258H28.5283V14.6953H39.7939ZM47.626 11.8242C47.6123 14.0938 48.8018 16.3633 50.8115 17.2246L49.9092 18.4414C48.4873 17.7852 47.4414 16.4727 46.874 14.8594C46.3066 16.6025 45.2471 18.0244 43.7432 18.7285L42.8135 17.457C44.8779 16.5684 46.0811 14.2031 46.0811 11.8242V9.85547H47.626V11.8242ZM53.2314 8.85742V21.2305H51.7002V8.85742H53.2314ZM58.9795 11.0039C58.9795 12.5215 59.9639 14.0254 61.9053 14.668L61.1396 15.8438C59.7588 15.3857 58.7744 14.4561 58.2412 13.3008C57.6875 14.5654 56.6621 15.5703 55.2197 16.0625L54.4131 14.8867C56.4092 14.2305 57.4482 12.6309 57.4482 11.0039V10.8535H54.8369V9.63672H61.5498V10.8535H58.9795V11.0039ZM64.2979 8.85742V11.9473H66.0205V13.2188H64.2979V16.3086H62.7803V8.85742H64.2979ZM64.2979 16.8828V21.2168H62.7803V18.0996H56.0674V16.8828H64.2979ZM75.8291 8.85742V13.7793H77.7295V15.0371H75.8291V21.2168H74.3252V8.85742H75.8291ZM73.3682 10.7578V11.9746H66.0811V10.7578H69.0068V9.03516H70.5244V10.7578H73.3682ZM69.7725 12.7812C71.5498 12.7812 72.876 13.9844 72.876 15.6934C72.876 17.4023 71.5498 18.5918 69.7725 18.5918C67.9678 18.5918 66.6416 17.4023 66.6553 15.6934C66.6416 13.9844 67.9678 12.7812 69.7725 12.7812ZM69.7725 14.0254C68.8018 14.0254 68.1045 14.6816 68.1045 15.6934C68.1045 16.7051 68.8018 17.3477 69.7725 17.334C70.7158 17.3477 71.4131 16.7051 71.4268 15.6934C71.4131 14.6816 70.7158 14.0254 69.7725 14.0254ZM87.7568 12.3574V13.5605H79.1982V9.30859H80.7021V12.3574H87.7568ZM89.0283 14.9961V16.1992H77.7354V14.9961H89.0283ZM87.8389 19.6992V20.9297H79.0889V17.293H80.6064V19.6992H87.8389Z" fill="#343A40"/>
<path d="M98.7061 10.0195V18.209H92.8271V10.0195H98.7061ZM94.3311 11.209V16.9922H97.2295V11.209H94.3311ZM102.452 8.85742V21.2305H100.921V8.85742H102.452ZM113.519 8.87109V11.5508H115.255V12.8086H113.519V15.8301H112.001V8.87109H113.519ZM113.519 16.4316V21.0527H105.521V16.4316H113.519ZM107.011 17.6211V19.8496H112.028V17.6211H107.011ZM105.835 9.47266V13.8203C107.421 13.8066 109.089 13.6631 110.894 13.3145L111.071 14.5586C109.021 14.9688 107.12 15.0781 105.329 15.0781H104.304V9.47266H105.835ZM122.048 11.1543C122.048 12.4941 122.827 13.834 124.454 14.4492L123.647 15.6113C122.547 15.1875 121.781 14.4014 121.337 13.4375C120.886 14.5449 120.079 15.4883 118.903 15.9805L118.083 14.8184C119.778 14.0664 120.571 12.5215 120.585 11.1543V9.62305H122.048V11.1543ZM128.761 8.87109V16.4453H127.312V13.2324H126.081V16.0625H124.659V9.10352H126.081V11.9883H127.312V8.87109H128.761ZM124.591 16.6504C127.175 16.6504 128.815 17.498 128.829 18.9199C128.815 20.3418 127.175 21.2031 124.591 21.2031C121.979 21.2031 120.353 20.3418 120.353 18.9199C120.353 17.498 121.979 16.6504 124.591 16.6504ZM124.591 17.7988C122.882 17.7988 121.87 18.1953 121.87 18.9199C121.87 19.6582 122.882 20.041 124.591 20.041C126.286 20.041 127.298 19.6582 127.298 18.9199C127.298 18.1953 126.286 17.7988 124.591 17.7988ZM139.581 8.85742V11.8652H141.249V13.1367H139.581V16.1309H138.063V8.85742H139.581ZM139.581 16.623V19.2891H132.868V20.082H140.019V21.1074H131.351V18.3457H138.063V17.6484H131.323V16.623H139.581ZM129.683 14.8867C130.612 14.8867 131.679 14.8867 132.8 14.8457V14.2305C131.412 14.0938 130.558 13.5332 130.558 12.6172C130.558 11.6191 131.72 11.0312 133.538 11.0312C135.356 11.0312 136.519 11.6191 136.519 12.6172C136.519 13.5195 135.685 14.0801 134.317 14.2305V14.791C135.37 14.75 136.43 14.6611 137.421 14.5312L137.544 15.4883C134.905 15.9395 132.007 15.9531 129.847 15.9531L129.683 14.8867ZM137.093 9.69141V10.7305H129.997V9.69141H132.8V8.76172H134.317V9.69141H137.093ZM133.538 11.9883C132.581 12.002 132.007 12.207 132.021 12.6172C132.007 13.0547 132.581 13.3008 133.538 13.3008C134.495 13.3008 135.069 13.0547 135.069 12.6172C135.069 12.207 134.495 12.002 133.538 11.9883Z" fill="#4263EB"/>
<path d="M79.848 36.6432C79.4563 37.2699 78.5437 37.2699 78.152 36.6432L74 30L84 30L79.848 36.6432Z" fill="white"/>
<path d="M80.5056 85.4006C88.6884 85.3705 93.4836 85.4683 102.237 84.9606C103.348 84.8966 104.127 84.827 112.886 84.0767C113.565 84.0184 113.86 83.5275 113.851 82.7978C113.821 80.4207 113.828 78.0416 113.847 75.6626C113.853 74.9818 113.639 74.8934 112.944 74.9367C103.251 75.5441 103.217 75.5441 93.2472 75.8733C91.924 75.9165 91.8884 75.8356 91.8884 74.4929C91.8846 69.1104 91.8884 63.728 91.8846 58.3456C91.8846 57.1175 91.817 57.0442 90.6347 57.0423C87.324 57.0367 84.0133 57.0367 80.7026 57.0423C79.4733 57.0442 79.3776 57.1401 79.3776 58.3926C79.372 62.6485 79.3757 66.9044 79.3776 71.1604C79.3776 75.4783 79.3889 79.7982 79.3682 84.1161C79.3645 84.9361 79.5521 85.4025 80.5074 85.3987L80.5056 85.4006Z" fill="white"/>
<path d="M82.4147 90.2152C82.4128 96.3819 82.4128 102.547 82.4147 108.713C82.4147 110.154 82.4429 110.182 83.888 110.182C91.322 110.184 98.756 110.182 106.19 110.182C113.75 110.182 121.308 110.184 128.866 110.18C130.106 110.18 130.196 110.088 130.198 108.837C130.202 102.609 130.204 96.38 130.198 90.1513C130.198 88.8593 130.104 88.769 128.802 88.769C113.81 88.7671 98.8161 88.7671 83.8242 88.769C82.4673 88.769 82.4128 88.8273 82.4128 90.2152H82.4147ZM96.6991 97.5779C103.437 97.5554 110.176 97.5704 116.914 97.5723C118.363 97.5723 118.404 97.608 118.401 99.0261C118.393 101.603 118.639 101.369 116.116 101.375C112.81 101.383 109.503 101.375 106.196 101.375C102.639 101.375 99.0826 101.379 95.5261 101.373C94.338 101.371 94.2311 101.272 94.2273 100.098C94.2161 97.1134 94.034 97.5874 96.6972 97.5779H96.6991Z" fill="white"/>
<path d="M23.5924 107.337C33.0234 107.339 42.4543 107.337 51.8852 107.337C53.2778 107.337 53.2872 107.327 53.2872 105.907C53.2872 90.4165 53.2872 74.9275 53.2872 59.4366C53.2872 58.0204 53.2684 57.9998 51.889 57.9998C42.49 57.9998 33.0891 57.9998 23.69 57.9998C22.2487 57.9998 22.2336 58.0167 22.2336 59.4798C22.2336 67.1773 22.2336 74.8767 22.2336 82.5742C22.2336 90.3657 22.2336 98.1573 22.2336 105.951C22.2336 107.295 22.2731 107.335 23.5924 107.337ZM33.3987 69.9043C33.3987 68.7872 33.9705 68.228 35.1141 68.2267C36.8933 68.2267 38.6726 68.2267 40.4518 68.2267C41.5653 68.2267 42.1234 68.8016 42.1259 69.9513C42.1259 74.2053 42.1259 78.4575 42.1259 82.7115C42.1259 87.0896 42.1277 91.4678 42.124 95.8478C42.124 97.1436 42.0546 97.2113 40.7333 97.2151C38.7364 97.2226 36.7376 97.2226 34.7407 97.2151C33.4719 97.2094 33.4025 97.1379 33.4006 95.8948C33.3969 91.4847 33.4006 87.0746 33.4006 82.6664C33.4006 78.4123 33.4006 74.1602 33.4006 69.9061L33.3987 69.9043Z" fill="white"/>
<path d="M50.5893 123.967C48.72 120.821 46.1337 118.53 42.4984 117.563C40.3532 116.993 38.1855 116.828 35.9934 117.003C31.4027 117.368 27.6904 119.295 25.0985 123.228C23.0509 126.337 22.0919 129.821 21.5176 133.425C20.6505 138.865 20.6956 144.342 21.1741 149.813C21.4632 153.128 22.0994 156.399 23.4319 159.468C24.8414 162.718 26.8102 165.522 30.1152 167.162C33.0693 168.627 36.2073 168.99 39.4279 168.717C43.5625 168.369 47.0984 166.797 49.6208 163.336C50.8483 161.653 51.7698 159.814 52.4698 157.86C54.2115 153.008 54.4086 147.938 54.5512 142.36C54.463 140.767 54.3935 138.67 54.2228 136.58C53.8605 132.135 52.8921 127.841 50.5893 123.967ZM43.052 142.102C42.9863 146.834 42.8306 150.77 41.6013 154.578C41.3479 155.366 40.9951 156.087 40.4358 156.698C38.6847 158.614 35.5767 158.257 34.2817 156.009C33.2026 154.134 32.9567 152.034 32.724 149.959C32.0821 144.208 32.1178 138.465 33.2138 132.759C33.3734 131.928 33.6173 131.123 33.9796 130.35C34.7397 128.721 35.9502 127.775 37.7876 127.822C39.411 127.864 40.8749 129.069 41.4774 130.833C42.2581 133.128 42.6861 135.497 42.8418 137.912C42.9488 139.567 43.1083 141.222 43.052 142.102Z" fill="white"/>
<path d="M61.2578 110.182C64.4446 110.188 67.6314 110.186 70.8182 110.182C71.8692 110.182 72.3954 109.667 72.3966 108.636C72.3966 100.277 72.3966 91.919 72.3966 83.5596C72.3966 75.076 72.3966 66.5923 72.3966 58.1069C72.3966 56.9409 72.3122 56.8468 71.1917 56.8449C67.8491 56.8355 64.5065 56.8355 61.1621 56.8449C59.9966 56.8468 59.8915 56.9578 59.8915 58.1595C59.8877 75.0647 59.8877 91.9698 59.8915 108.875C59.8915 110.092 59.9891 110.18 61.2597 110.182H61.2578Z" fill="white"/>
<path d="M71.1781 117.223C67.8055 117.218 64.4329 117.244 61.0603 117.206C60.1481 117.197 59.8741 117.549 59.876 118.423C59.8929 135.417 59.8872 152.41 59.891 169.402C59.891 170.547 59.9942 170.649 61.1184 170.651C64.4291 170.658 67.7398 170.656 71.0505 170.651C72.368 170.651 72.398 170.617 72.398 169.259C72.398 160.809 72.398 152.359 72.398 143.91C72.398 135.428 72.398 126.948 72.398 118.466C72.398 117.31 72.3136 117.221 71.1818 117.219L71.1781 117.223Z" fill="white"/>
<path d="M132.467 159.39C126.281 159.386 120.097 159.39 113.911 159.39C113.568 159.39 113.224 159.371 112.881 159.386C112.108 159.42 111.734 159.113 111.766 158.284C111.809 157.127 111.818 155.965 111.764 154.81C111.725 153.966 112.087 153.639 112.883 153.554C114.945 153.338 116.923 152.749 118.873 152.067C129.305 148.42 133.666 135.714 127.811 126.298C125.024 121.816 120.934 119.178 116.096 117.611C110.58 115.825 104.906 115.798 99.2214 116.676C96.5188 117.094 93.9626 118.002 91.5152 119.24C85.2298 122.414 81.6789 127.485 81.3674 134.539C81.0033 142.774 84.3515 148.813 92.1965 151.888C94.1991 152.672 96.2654 153.315 98.4237 153.571C98.9643 153.635 99.501 153.71 99.4935 154.466C99.4804 155.843 99.486 157.221 99.4916 158.598C99.4916 159.108 99.2251 159.337 98.7447 159.358C98.3393 159.375 97.9339 159.388 97.5266 159.388C91.2469 159.39 84.969 159.388 78.6892 159.392C77.488 159.392 77.3961 159.488 77.3942 160.669C77.3885 163.266 77.3904 165.865 77.3942 168.462C77.3942 169.871 77.3998 169.876 78.8037 169.876C87.7372 169.876 96.6727 169.876 105.606 169.876C114.572 169.876 123.537 169.876 132.503 169.876C133.863 169.876 133.884 169.856 133.888 168.528C133.892 165.961 133.892 163.394 133.888 160.827C133.888 159.446 133.833 159.388 132.469 159.388L132.467 159.39ZM106 143.495C103.322 143.513 100.927 143.314 98.664 142.389C95.6498 141.159 93.5872 139.135 93.3282 135.679C93.1762 133.642 93.9194 131.944 95.2444 130.465C97.0105 128.493 99.2833 127.432 101.84 127.013C106.017 126.326 110.12 126.456 113.966 128.523C117.548 130.448 119.131 134.116 117.911 137.67C117.096 140.038 115.324 141.452 113.095 142.347C110.739 143.295 108.258 143.526 106 143.495Z" fill="white"/>
<path d="M108.684 133.975C107.746 133.77 107.335 133.281 107.13 132.384C106.794 130.9 106.353 129.44 105.955 127.97C105.869 127.973 105.785 127.977 105.698 127.979C105.285 129.512 104.839 131.039 104.471 132.583C104.287 133.352 103.885 133.732 103.118 133.909C101.455 134.292 99.8108 134.759 98.1592 135.191C99.6738 135.806 101.185 136.273 102.725 136.591C103.829 136.818 104.351 137.377 104.567 138.479C104.863 139.989 105.327 141.465 105.719 142.955C105.8 142.953 105.88 142.951 105.959 142.947C106.359 141.384 106.802 139.831 107.14 138.257C107.342 137.311 107.81 136.82 108.761 136.606C110.238 136.275 111.685 135.82 113.145 135.415C111.661 134.78 110.188 134.3 108.682 133.973L108.684 133.975Z" fill="white"/>
<path d="M137.998 65.6395C137.998 65.0151 137.726 64.6183 137.101 64.7161C133.952 65.2163 133.659 65.2634 131.324 65.6865C130.806 65.7805 130.213 66.0626 130.206 64.953C130.191 62.6681 130.206 60.3831 130.196 58.0981C130.191 56.9678 130.076 56.8493 128.957 56.8456C125.896 56.8362 122.835 56.8399 119.772 56.8456C118.504 56.8475 118.436 56.9152 118.436 58.1658C118.432 62.5797 118.436 66.9936 118.436 71.4074C118.436 75.9154 118.449 80.4233 118.425 84.9312C118.421 85.7605 118.68 86.1198 119.553 86.1103C122.74 86.0784 125.926 86.0821 129.111 86.1085C129.93 86.116 130.217 85.785 130.207 84.9895C130.181 82.7666 130.194 80.5436 130.204 78.3226C130.209 77.1133 130.384 77.0024 131.559 76.7203C133.89 76.1617 134.436 76.2069 136.951 75.5524C137.604 75.3831 138 75.3023 137.996 74.5594C137.981 71.398 137.985 68.8009 137.994 65.6376L137.998 65.6395Z" fill="white"/>
</svg>
