<svg xmlns="http://www.w3.org/2000/svg" version="1.1" xmlns:xlink="http://www.w3.org/1999/xlink" width="128" height="128" x="0" y="0" viewBox="0 0 60 60" style="enable-background:new 0 0 128 128" xml:space="preserve" class="">
    <g fill="none" fill-rule="nonzero">
        <path fill="#00bcd4" d="M35 54a5 5 0 0 1-5 5H6a5 5 0 0 1-5-5V6a5 5 0 0 1 5-5h24a5 5 0 0 1 5 5z" opacity="1" data-original="#00bcd4" class=""></path>
        <path fill="#00838f" d="M30 1h-3a5 5 0 0 1 5 5v48a5 5 0 0 1-5 5h3a5 5 0 0 0 5-5V6a5 5 0 0 0-5-5z" opacity="1" data-original="#00838f"></path>
        <path fill="#607d8b" d="m29 1-2.447 4.894A2 2 0 0 1 24.764 7H11.236a2 2 0 0 1-1.789-1.106L7 1z" opacity="1" data-original="#607d8b"></path>
        <path fill="#f5f5f5" d="M21 24 9.526 30.12a1 1 0 0 0 0 1.76L21 38v7a5 5 0 0 0 5 5h28a5 5 0 0 0 5-5V17a5 5 0 0 0-5-5H26a5 5 0 0 0-5 5z" opacity="1" data-original="#f5f5f5" class=""></path>
        <path fill="#cfd8dc" d="M54 12h-3a5 5 0 0 1 5 5v28a5 5 0 0 1-5 5h3a5 5 0 0 0 5-5V17a5 5 0 0 0-5-5z" opacity="1" data-original="#cfd8dc"></path>
        <path fill="#ffeb3a" d="M51 39H29a1 1 0 0 1-.96-1.28l2.48-7.37A11.9 11.9 0 0 0 31 27a9 9 0 0 1 18 0 11.9 11.9 0 0 0 .48 3.35l2.48 7.37A1 1 0 0 1 51 39z" opacity="1" data-original="#ffeb3a" class=""></path>
        <path fill="#fdd834" d="m51.96 37.72-2.48-7.37A11.9 11.9 0 0 1 49 27a9.014 9.014 0 0 0-9-9 9.045 9.045 0 0 0-1.5.135A9 9 0 0 1 46 27a11.9 11.9 0 0 0 .48 3.35l2.48 7.37A1 1 0 0 1 48 39h3a1 1 0 0 0 .96-1.28z" opacity="1" data-original="#fdd834" class=""></path>
        <path fill="#fec108" d="M44 40a4 4 0 1 1-8 0c-.003-.338.04-.674.13-1h7.74c.09.326.133.662.13 1z" opacity="1" data-original="#fec108"></path>
        <g fill="#000">
            <path d="M35 53a1 1 0 0 0-1 1 4 4 0 0 1-4 4H6a4 4 0 0 1-4-4V6a4 4 0 0 1 4-4h.382l2.171 4.342A2.984 2.984 0 0 0 11.236 8h13.528a2.984 2.984 0 0 0 2.683-1.658L29.618 2H30a4 4 0 0 1 4 4v2a1 1 0 0 0 2 0V6a6.006 6.006 0 0 0-6-6H6a6.006 6.006 0 0 0-6 6v48a6.006 6.006 0 0 0 6 6h24a6.006 6.006 0 0 0 6-6 1 1 0 0 0-1-1zM25.658 5.447a.994.994 0 0 1-.894.553H11.236a.994.994 0 0 1-.894-.553L8.618 2h18.764z" fill="#000000" opacity="1" data-original="#000000" class=""></path>
            <path d="M26 56a1 1 0 0 0 0-2H10a1 1 0 0 0 0 2zM54 11H26a6.006 6.006 0 0 0-6 6v6.4L9.051 29.239a2 2 0 0 0 0 3.525L20 38.6V45a6.006 6.006 0 0 0 6 6h28a6.006 6.006 0 0 0 6-6V17a6.006 6.006 0 0 0-6-6zm4 34a4 4 0 0 1-4 4H26a4 4 0 0 1-4-4v-7a1 1 0 0 0-.529-.883L10 31l11.474-6.119A1 1 0 0 0 22 24v-7a4 4 0 0 1 4-4h28a4 4 0 0 1 4 4z" fill="#000000" opacity="1" data-original="#000000" class=""></path>
            <path d="m52.908 37.4-2.47-7.329A10.965 10.965 0 0 1 50 27c0-5.523-4.477-10-10-10s-10 4.477-10 10a10.92 10.92 0 0 1-.426 3.032L27.08 37.44A2 2 0 0 0 29 40h6a5 5 0 0 0 10 0h6a2 2 0 0 0 1.92-2.56zM40 43a3 3 0 0 1-3-3h6a3 3 0 0 1-3 3zm4.012-4.988a.884.884 0 0 0-.089 0l-7.665.013a.985.985 0 0 0-.316 0l-6.954.012 2.493-7.407c.344-1.18.52-2.402.519-3.63a8 8 0 0 1 16 0 13 13 0 0 0 .531 3.671L51 38z" fill="#000000" opacity="1" data-original="#000000" class=""></path>
        </g>
    </g>
</svg>